# Blender 3.3.0
# www.blender.org
o cone
v 0.000000 -1.000000 -1.000000
v 0.195090 -1.000000 -0.980785
v 0.382683 -1.000000 -0.923880
v 0.555570 -1.000000 -0.831470
v 0.707107 -1.000000 -0.707107
v 0.831470 -1.000000 -0.555570
v 0.923880 -1.000000 -0.382683
v 0.980785 -1.000000 -0.195090
v 1.000000 -1.000000 0.000000
v -1.000000 -1.000000 0.000000
v -0.980785 -1.000000 -0.195090
v -0.923880 -1.000000 -0.382683
v -0.831470 -1.000000 -0.555570
v -0.707107 -1.000000 -0.707107
v -0.555570 -1.000000 -0.831470
v -0.382683 -1.000000 -0.923880
v -0.195090 -1.000000 -0.980785
v 0.000000 1.000000 0.000000
v 0.000000 -1.000000 0.000000
v 0.000000 -1.000000 1.000000
v 0.195090 -1.000000 0.980785
v 0.382683 -1.000000 0.923880
v 0.555570 -1.000000 0.831470
v 0.707107 -1.000000 0.707107
v 0.831470 -1.000000 0.555570
v 0.923880 -1.000000 0.382683
v 0.980785 -1.000000 0.195090
v -0.980785 -1.000000 0.195090
v -0.923880 -1.000000 0.382683
v -0.831470 -1.000000 0.555570
v -0.707107 -1.000000 0.707107
v -0.555570 -1.000000 0.831470
v -0.382683 -1.000000 0.923880
v -0.195090 -1.000000 0.980785
vn 0.0878 0.4455 -0.8910
vn 0.2599 0.4455 -0.8567
vn 0.4220 0.4455 -0.7896
vn 0.5680 0.4455 -0.6921
vn 0.6921 0.4455 -0.5680
vn 0.7896 0.4455 -0.4220
vn 0.8567 0.4455 -0.2599
vn 0.8910 0.4455 -0.0878
vn -0.8910 0.4455 -0.0878
vn -0.8567 0.4455 -0.2599
vn -0.7896 0.4455 -0.4220
vn -0.6921 0.4455 -0.5680
vn -0.5680 0.4455 -0.6921
vn -0.4220 0.4455 -0.7896
vn -0.2599 0.4455 -0.8567
vn -0.0878 0.4455 -0.8910
vn -0.0000 -1.0000 -0.0000
vn 0.0878 0.4455 0.8910
vn 0.2599 0.4455 0.8567
vn 0.4220 0.4455 0.7896
vn 0.5680 0.4455 0.6921
vn 0.6921 0.4455 0.5680
vn 0.7896 0.4455 0.4220
vn 0.8567 0.4455 0.2599
vn 0.8910 0.4455 0.0878
vn -0.8910 0.4455 0.0878
vn -0.8567 0.4455 0.2599
vn -0.7896 0.4455 0.4220
vn -0.6921 0.4455 0.5680
vn -0.5680 0.4455 0.6921
vn -0.4220 0.4455 0.7896
vn -0.2599 0.4455 0.8567
vn -0.0878 0.4455 0.8910
vt 0.250000 0.490000
vt 0.296822 0.485388
vt 0.341844 0.471731
vt 0.383337 0.449553
vt 0.000000 0.000000
vt 0.419706 0.419706
vt 0.449553 0.383337
vt 0.471731 0.341844
vt 0.485388 0.296822
vt 0.490000 0.250000
vt 0.010000 0.250000
vt 0.014612 0.296822
vt 0.028269 0.341844
vt 0.050447 0.383337
vt 0.080294 0.419706
vt 0.116663 0.449553
vt 0.158156 0.471731
vt 0.658156 0.471731
vt 0.203178 0.485388
vt 0.703178 0.485388
vt 0.250000 0.250000
vt 0.000000 0.000000
vt 0.250000 0.490000
vt 0.296822 0.485388
vt 0.341844 0.471731
vt 0.383337 0.449553
vt 0.000000 0.000000
vt 0.419706 0.419706
vt 0.449553 0.383337
vt 0.471731 0.341844
vt 0.485388 0.296822
vt 0.014612 0.296822
vt 0.028269 0.341844
vt 0.050447 0.383337
vt 0.080294 0.419706
vt 0.116663 0.449553
vt 0.158156 0.471731
vt 0.658156 0.471731
vt 0.203178 0.485388
vt 0.703178 0.485388
s 0
f 1/1/1 18/21/1 2/2/1
f 2/2/2 18/21/2 3/3/2
f 3/3/3 18/21/3 4/4/3
f 4/4/4 18/21/4 5/6/4
f 5/6/5 18/21/5 6/7/5
f 6/7/6 18/21/6 7/8/6
f 7/8/7 18/21/7 8/9/7
f 8/9/8 18/21/8 9/10/8
f 10/11/9 18/21/9 11/12/9
f 11/12/10 18/21/10 12/13/10
f 12/13/11 18/21/11 13/14/11
f 13/14/12 18/21/12 14/15/12
f 14/15/13 18/21/13 15/16/13
f 15/16/14 18/21/14 16/17/14
f 16/17/15 18/21/15 17/19/15
f 17/19/16 18/21/16 1/1/16
f 19/22/17 8/9/17 9/10/17
f 7/8/17 8/9/17 19/22/17
f 6/7/17 7/8/17 19/22/17
f 5/6/17 19/22/17 4/5/17
f 6/7/17 19/22/17 5/6/17
f 19/22/17 3/3/17 4/5/17
f 19/22/17 2/2/17 3/3/17
f 1/1/17 2/2/17 19/22/17
f 1/1/17 19/22/17 17/20/17
f 19/22/17 16/18/17 17/20/17
f 15/16/17 16/18/17 19/22/17
f 19/22/17 14/15/17 15/16/17
f 13/14/17 14/15/17 19/22/17
f 19/22/17 12/13/17 13/14/17
f 19/22/17 11/12/17 12/13/17
f 10/11/17 11/12/17 19/22/17
f 20/23/18 21/24/18 18/21/18
f 21/24/19 22/25/19 18/21/19
f 22/25/20 23/26/20 18/21/20
f 23/26/21 24/28/21 18/21/21
f 24/28/22 25/29/22 18/21/22
f 25/29/23 26/30/23 18/21/23
f 26/30/24 27/31/24 18/21/24
f 27/31/25 9/10/25 18/21/25
f 10/11/26 28/32/26 18/21/26
f 28/32/27 29/33/27 18/21/27
f 29/33/28 30/34/28 18/21/28
f 30/34/29 31/35/29 18/21/29
f 31/35/30 32/36/30 18/21/30
f 32/36/31 33/37/31 18/21/31
f 33/37/32 34/39/32 18/21/32
f 34/39/33 20/23/33 18/21/33
f 19/22/17 9/10/17 27/31/17
f 26/30/17 19/22/17 27/31/17
f 25/29/17 19/22/17 26/30/17
f 24/28/17 23/27/17 19/22/17
f 25/29/17 24/28/17 19/22/17
f 19/22/17 23/27/17 22/25/17
f 19/22/17 22/25/17 21/24/17
f 20/23/17 19/22/17 21/24/17
f 20/23/17 34/40/17 19/22/17
f 19/22/17 34/40/17 33/38/17
f 32/36/17 19/22/17 33/38/17
f 19/22/17 32/36/17 31/35/17
f 30/34/17 19/22/17 31/35/17
f 19/22/17 30/34/17 29/33/17
f 19/22/17 29/33/17 28/32/17
f 10/11/17 19/22/17 28/32/17
