# Blender 3.3.0
# www.blender.org
o normal_flipped_2
v -2.000000 1.000000 0.000000
v -2.000000 -1.000000 0.000000
v -0.000000 -1.000000 0.000000
v 2.000000 1.000000 0.000000
v -0.000000 1.000000 0.000000
v 2.000000 -1.000000 0.000000
vn -0.0000 -0.0000 1.0000
vn -0.0000 -0.0000 -1.0000
vt 0.000000 0.000000
vt 1.000000 0.000000
vt 1.000000 1.000000
vt 0.000000 0.000000
vt 0.000000 1.000000
vt 1.000000 0.000000
vt 0.000000 1.000000
s 0
f 2/2/1 5/5/1 1/1/1
f 2/2/2 5/5/2 3/3/2
f 5/6/1 6/7/1 4/4/1
f 5/6/2 6/7/2 3/3/2
